<?xml version="1.0" standalone="no"?>
<!DOCTYPE svg PUBLIC "-//W3C//DTD SVG 20010904//EN"
 "http://www.w3.org/TR/2001/REC-SVG-20010904/DTD/svg10.dtd">
<svg version="1.0" xmlns="http://www.w3.org/2000/svg"
 width="953.000000pt" height="953.000000pt" viewBox="0 0 953.000000 953.000000"
 preserveAspectRatio="xMidYMid meet">
<metadata>
Created by potrace 1.14, written by Peter Selinger 2001-2017
</metadata>
<g transform="translate(0.000000,953.000000) scale(0.100000,-0.100000)"
fill="#000000" stroke="none">
<path d="M50 4750 l0 -4710 4710 0 4710 0 0 4710 0 4710 -4710 0 -4710 0 0
-4710z m6780 4383 c90 -16 240 -66 329 -110 61 -31 178 -126 266 -217 70 -72
181 -257 232 -384 58 -149 83 -250 109 -447 27 -210 34 -537 14 -730 -5 -55
-16 -165 -24 -245 -21 -212 -94 -551 -179 -835 -13 -44 -34 -116 -46 -160 -47
-166 -185 -554 -227 -637 -8 -14 -25 -59 -38 -100 -27 -80 -113 -273 -194
-437 -29 -57 -52 -109 -52 -117 0 -13 -101 -206 -190 -364 -23 -41 -48 -92
-56 -113 -7 -20 -26 -56 -42 -80 -16 -23 -50 -80 -77 -127 -26 -47 -60 -103
-75 -125 -15 -22 -46 -76 -69 -120 -23 -44 -54 -96 -69 -115 -15 -19 -56 -80
-91 -135 -95 -150 -199 -303 -252 -370 -25 -33 -57 -78 -69 -100 -22 -40 -75
-111 -96 -130 -14 -13 -123 -160 -148 -200 -11 -16 -29 -39 -40 -50 -12 -12
-70 -81 -131 -155 -60 -74 -146 -175 -191 -225 -44 -49 -100 -112 -125 -140
-138 -156 -580 -586 -706 -687 -23 -18 -98 -80 -168 -138 -70 -58 -142 -114
-159 -125 -33 -20 -155 -109 -236 -170 -25 -19 -65 -44 -90 -56 -25 -12 -70
-39 -102 -60 -31 -21 -96 -59 -145 -85 -48 -26 -95 -53 -103 -60 -9 -7 -60
-31 -115 -53 -55 -22 -125 -51 -156 -64 -94 -42 -298 -107 -417 -133 -203 -44
-427 -49 -587 -14 -157 34 -331 118 -458 219 -81 66 -216 220 -241 276 -8 17
-39 82 -70 146 -63 133 -116 303 -147 481 -19 109 -22 159 -22 453 0 343 5
415 49 678 39 233 87 447 149 657 19 63 37 133 41 155 9 55 124 388 195 568
33 81 59 154 59 162 0 8 13 44 30 79 16 36 41 92 55 125 13 33 50 113 81 178
31 65 63 136 71 158 7 22 49 107 92 190 43 82 107 204 141 270 77 148 153 283
197 350 19 27 45 75 60 105 14 30 43 80 63 110 79 115 190 288 190 294 0 8 97
150 165 241 25 33 58 83 74 111 16 28 36 58 44 65 8 8 63 80 123 159 127 170
254 329 279 350 9 8 34 39 55 70 20 30 77 98 126 150 49 52 102 112 118 133
40 55 583 596 620 618 17 10 58 45 91 77 78 75 180 162 191 162 5 0 37 24 71
54 122 106 494 358 648 438 339 177 434 216 660 277 291 79 491 94 715 54z"/>
<path d="M6385 9025 c-212 -33 -415 -102 -735 -252 -41 -19 -91 -45 -110 -57
-19 -13 -91 -56 -160 -96 -135 -79 -301 -190 -338 -225 -12 -12 -39 -33 -60
-47 -20 -13 -55 -37 -78 -51 -22 -15 -56 -42 -76 -60 -60 -54 -151 -131 -193
-162 -22 -16 -78 -66 -125 -112 -47 -45 -101 -95 -120 -110 -47 -38 -309 -300
-338 -338 -12 -16 -69 -78 -125 -136 -56 -59 -116 -126 -134 -150 -17 -24 -61
-75 -98 -114 -36 -38 -81 -92 -99 -120 -19 -27 -57 -77 -85 -110 -83 -98 -167
-208 -184 -241 -9 -17 -23 -37 -32 -44 -18 -15 -182 -236 -205 -278 -9 -15
-45 -69 -80 -121 -99 -142 -170 -254 -170 -264 0 -6 -11 -24 -23 -41 -42 -55
-207 -324 -226 -368 -10 -24 -47 -90 -81 -148 -35 -58 -125 -229 -200 -380
-197 -397 -210 -424 -210 -440 0 -8 -21 -60 -46 -115 -70 -154 -173 -413 -193
-485 -10 -36 -42 -132 -71 -215 -63 -184 -153 -496 -170 -590 -7 -38 -21 -110
-31 -160 -74 -350 -103 -641 -96 -965 6 -289 28 -446 90 -640 14 -41 27 -88
31 -105 9 -36 66 -150 114 -225 54 -84 199 -237 272 -284 84 -56 228 -113 349
-138 82 -17 121 -19 261 -15 205 7 272 20 589 118 63 19 286 126 486 232 155
82 560 361 639 439 17 16 54 45 83 64 29 20 94 75 145 122 51 48 109 99 128
114 85 65 562 551 629 641 21 28 53 66 71 82 29 27 125 140 175 206 11 15 63
80 116 145 95 119 168 217 133 179 -17 -18 -116 -112 -231 -217 -48 -44 -305
-218 -375 -254 -65 -33 -328 -120 -418 -138 -125 -25 -289 -38 -390 -31 -182
13 -292 39 -485 118 -224 90 -499 403 -572 650 -74 250 -93 370 -93 580 0 177
20 345 66 552 52 235 123 428 234 645 21 41 51 101 65 133 15 32 41 79 58 105
18 26 63 97 102 157 64 101 211 299 276 370 89 98 307 308 384 370 158 128
383 258 535 310 142 50 388 69 553 44 192 -29 378 -185 443 -374 26 -72 28
-93 28 -210 -1 -175 -29 -279 -126 -472 -85 -171 -166 -281 -333 -452 -154
-159 -456 -406 -560 -459 -22 -11 -85 -50 -140 -87 -153 -100 -694 -363 -841
-409 -28 -8 -71 -24 -96 -35 l-45 -19 -7 -65 c-13 -134 20 -365 76 -515 40
-109 155 -290 225 -355 203 -187 355 -247 628 -247 241 0 403 48 593 176 57
38 120 79 140 91 20 12 41 28 47 35 5 7 63 64 128 126 102 97 302 313 346 373
13 18 15 18 57 -16 24 -20 48 -34 52 -31 10 6 112 162 225 341 41 66 91 145
111 175 20 30 48 80 62 110 15 30 40 77 58 104 44 70 140 241 171 306 44 91
102 207 184 370 43 85 84 173 91 195 7 22 25 65 40 96 55 112 163 374 207 502
181 529 209 622 272 912 99 452 131 705 131 1035 0 304 -43 582 -120 776 -18
43 -38 99 -46 123 -21 69 -120 208 -219 306 -138 137 -287 218 -469 256 -107
22 -316 24 -441 4z"/>
<path d="M5145 6199 c-54 -13 -210 -85 -265 -123 -40 -26 -181 -156 -263 -241
-16 -16 -43 -52 -61 -80 -18 -27 -54 -76 -80 -108 -48 -59 -140 -197 -168
-252 -8 -16 -47 -88 -87 -160 -74 -133 -120 -229 -151 -319 -9 -28 -38 -109
-63 -180 -73 -205 -123 -416 -161 -683 -4 -25 -2 -43 3 -43 26 0 453 220 576
297 256 160 363 244 539 419 183 184 281 309 393 505 135 237 173 331 198 484
31 193 13 350 -47 412 -59 62 -100 77 -218 80 -58 1 -123 -2 -145 -8z"/>
</g>
</svg>
